<!DOCTYPE svg PUBLIC "-//W3C//DTD SVG 1.1//EN" "http://www.w3.org/Graphics/SVG/1.1/DTD/svg11.dtd">
<svg width="521px" height="521px" version="1.1" baseProfile="full"
    xmlns="http://www.w3.org/2000/svg" xmlns:xlink="http://www.w3.org/1999/xlink"
    xmlns:ev="http://www.w3.org/2001/xml-events">
    <polygon fill="rgb(119,57,0)" stroke="rgb(119,57,0)"
        points="231.58150866627693,121.12695750594139 189.68509364128113,111.33816796541214 187.45655888319016,101.673160135746"></polygon>
    <polygon fill="rgb(119,57,0)" stroke="rgb(119,57,0)"
        points="191.10190135240555,122.97234916687012 189.68509364128113,111.33816796541214 231.58150866627693,121.12695750594139"></polygon>
    <polygon fill="rgb(119,57,0)" stroke="rgb(119,57,0)"
        points="196.9093454182148,139.66644535958767 231.58150866627693,121.12695750594139 248.08453619480133,124.56607136130333"></polygon>
    <polygon fill="rgb(119,57,0)" stroke="rgb(119,57,0)"
        points="191.10190135240555,122.97234916687012 231.58150866627693,121.12695750594139 196.9093454182148,139.66644535958767"></polygon>
    <polygon fill="rgb(247,132,25)" stroke="rgb(247,132,25)"
        points="319.90004523471,90.89659136533737 282.9735015630722,91.59704399108887 271.7589461952448,55.42969262599945"></polygon>
    <polygon fill="rgb(247,132,25)" stroke="rgb(247,132,25)"
        points="271.7589461952448,55.42969262599945 338.27885461598635,53.60495126247406 319.90004523471,90.89659136533737"></polygon>
    <polygon fill="rgb(225,119,25)" stroke="rgb(225,119,25)"
        points="247.42622025310993,232.61344456672668 263.2573817074299,224.64781659841537 267.4995704591274,223.37932187318802"></polygon>
    <polygon fill="rgb(228,119,25)" stroke="rgb(228,119,25)"
        points="282.9735015630722,91.59704399108887 190.28667011857033,24.252089738845825 271.7589461952448,55.42969262599945"></polygon>
    <polygon fill="rgb(119,57,0)" stroke="rgb(119,57,0)"
        points="230.69687989354134,68.74080228805542 231.58150866627693,121.12695750594139 187.45655888319016,101.673160135746"></polygon>
    <polygon fill="rgb(119,57,0)" stroke="rgb(119,57,0)"
        points="248.08453619480133,124.56607136130333 231.58150866627693,121.12695750594139 230.69687989354134,68.74080228805542"></polygon>
    <polygon fill="rgb(228,119,25)" stroke="rgb(228,119,25)"
        points="247.42622025310993,232.61344456672668 194.7178562283516,251.60057723522186 179.91945549845695,194.56642878055573"></polygon>
    <polygon fill="rgb(119,57,0)" stroke="rgb(119,57,0)"
        points="182.045545399189,105.35221862792969 187.45655888319016,101.673160135746 189.68509364128113,111.33816796541214"></polygon>
    <polygon fill="rgb(119,57,0)" stroke="rgb(119,57,0)"
        points="191.10190135240555,122.97234916687012 183.5468104183674,115.77360981702805 189.68509364128113,111.33816796541214"></polygon>
    <polygon fill="rgb(247,132,25)" stroke="rgb(247,132,25)"
        points="228.5262602865696,144.46606913208961 179.91945549845695,194.56642878055573 196.9093454182148,139.66644535958767"></polygon>
    <polygon fill="rgb(225,119,25)" stroke="rgb(225,119,25)"
        points="414.5641632974148,16.32296884059906 319.90004523471,90.89659136533737 338.27885461598635,53.60495126247406"></polygon>
    <polygon fill="rgb(228,119,25)" stroke="rgb(228,119,25)"
        points="179.91945549845695,194.56642878055573 220.14225989580154,189.8421323299408 247.42622025310993,232.61344456672668"></polygon>
    <polygon fill="rgb(247,132,25)" stroke="rgb(247,132,25)"
        points="220.14225989580154,189.8421323299408 179.91945549845695,194.56642878055573 228.5262602865696,144.46606913208961"></polygon>
    <polygon fill="rgb(119,57,0)" stroke="rgb(119,57,0)"
        points="196.9093454182148,139.66644535958767 186.07891023159027,126.3410057425499 191.10190135240555,122.97234916687012"></polygon>
    <polygon fill="rgb(119,57,0)" stroke="rgb(119,57,0)"
        points="187.45655888319016,101.673160135746 179.32636958360672,61.715067744255066 230.69687989354134,68.74080228805542"></polygon>
    <polygon fill="rgb(119,57,0)" stroke="rgb(119,57,0)"
        points="379.3644369393587,119.31460019946098 424.32885906100273,97.64445686340332 421.81568002700806,107.9242554306984"></polygon>
    <polygon fill="rgb(119,57,0)" stroke="rgb(119,57,0)"
        points="413.7756389081478,137.93688583374023 359.4083992242813,123.29565781354904 379.3644369393587,119.31460019946098"></polygon>
    <polygon fill="rgb(119,57,0)" stroke="rgb(119,57,0)"
        points="420.0933859050274,120.23730897903442 413.7756389081478,137.93688583374023 379.3644369393587,119.31460019946098"></polygon>
    <polygon fill="rgb(119,57,0)" stroke="rgb(119,57,0)"
        points="420.0933859050274,120.23730897903442 379.3644369393587,119.31460019946098 421.81568002700806,107.9242554306984"></polygon>
    <polygon fill="rgb(119,57,0)" stroke="rgb(119,57,0)"
        points="230.69687989354134,68.74080228805542 282.9735015630722,91.59704399108887 248.08453619480133,124.56607136130333"></polygon>
    <polygon fill="rgb(119,57,0)" stroke="rgb(119,57,0)"
        points="424.32885906100273,97.64445686340332 379.3644369393587,119.31460019946098 375.05816182494164,65.19387650489807"></polygon>
    <polygon fill="rgb(119,57,0)" stroke="rgb(119,57,0)"
        points="375.05816182494164,65.19387650489807 379.3644369393587,119.31460019946098 359.4083992242813,123.29565781354904"></polygon>
    <polygon fill="rgb(247,132,25)" stroke="rgb(247,132,25)"
        points="196.9093454182148,139.66644535958767 248.08453619480133,124.56607136130333 228.5262602865696,144.46606913208961"></polygon>
    <polygon fill="rgb(228,119,25)" stroke="rgb(228,119,25)"
        points="435.1475831270218,195.85333478450775 420.08742970228195,255.7775548696518 355.22235065698624,234.1078706383705"></polygon>
    <polygon fill="rgb(228,119,25)" stroke="rgb(228,119,25)"
        points="248.08453619480133,124.56607136130333 282.9735015630722,91.59704399108887 282.22492764890194,144.9987177848816"></polygon>
    <polygon fill="rgb(228,119,25)" stroke="rgb(228,119,25)"
        points="282.22492764890194,144.9987177848816 228.5262602865696,144.46606913208961 248.08453619480133,124.56607136130333"></polygon>
    <polygon fill="rgb(119,57,0)" stroke="rgb(119,57,0)"
        points="359.4083992242813,123.29565781354904 319.90004523471,90.89659136533737 375.05816182494164,65.19387650489807"></polygon>
    <polygon fill="rgb(119,57,0)" stroke="rgb(119,57,0)"
        points="230.69687989354134,68.74080228805542 179.32636958360672,61.715067744255066 190.28667011857033,24.252089738845825"></polygon>
    <polygon fill="rgb(119,57,0)" stroke="rgb(119,57,0)"
        points="190.28667011857033,24.252089738845825 282.9735015630722,91.59704399108887 230.69687989354134,68.74080228805542"></polygon>
    <polygon fill="rgb(247,132,25)" stroke="rgb(247,132,25)"
        points="413.7756389081478,137.93688583374023 371.92856155335903,143.49263280630112 359.4083992242813,123.29565781354904"></polygon>
    <polygon fill="rgb(119,57,0)" stroke="rgb(119,57,0)"
        points="429.82002967596054,101.34924876689911 421.81568002700806,107.9242554306984 424.32885906100273,97.64445686340332"></polygon>
    <polygon fill="rgb(247,132,25)" stroke="rgb(247,132,25)"
        points="371.92856155335903,143.49263280630112 413.7756389081478,137.93688583374023 435.1475831270218,195.85333478450775"></polygon>
    <polygon fill="rgb(119,57,0)" stroke="rgb(119,57,0)"
        points="420.0933859050274,120.23730897903442 421.81568002700806,107.9242554306984 428.02686497569084,112.4303617477417"></polygon>
    <polygon fill="rgb(119,57,0)" stroke="rgb(119,57,0)"
        points="413.7756389081478,137.93688583374023 420.0933859050274,120.23730897903442 425.17176696658134,123.67307960987091"></polygon>
    <polygon fill="rgb(228,119,25)" stroke="rgb(228,119,25)"
        points="359.4083992242813,123.29565781354904 371.92856155335903,143.49263280630112 312.8422589171678,144.79725790023804"></polygon>
    <polygon fill="rgb(228,119,25)" stroke="rgb(228,119,25)"
        points="312.8422589171678,144.79725790023804 319.90004523471,90.89659136533737 359.4083992242813,123.29565781354904"></polygon>
    <polygon fill="rgb(228,119,25)" stroke="rgb(228,119,25)"
        points="355.22235065698624,234.1078706383705 380.46152648329735,190.46450889110565 435.1475831270218,195.85333478450775"></polygon>
    <polygon fill="rgb(247,132,25)" stroke="rgb(247,132,25)"
        points="371.92856155335903,143.49263280630112 435.1475831270218,195.85333478450775 380.46152648329735,190.46450889110565"></polygon>
    <polygon fill="rgb(119,57,0)" stroke="rgb(119,57,0)"
        points="375.05816182494164,65.19387650489807 430.5058255791664,55.04874396324158 424.32885906100273,97.64445686340332"></polygon>
    <polygon fill="rgb(119,57,0)" stroke="rgb(119,57,0)"
        points="375.05816182494164,65.19387650489807 319.90004523471,90.89659136533737 414.5641632974148,16.32296884059906"></polygon>
    <polygon fill="rgb(247,132,25)" stroke="rgb(247,132,25)"
        points="282.9735015630722,91.59704399108887 319.90004523471,90.89659136533737 312.8422589171678,144.79725790023804"></polygon>
    <polygon fill="rgb(247,132,25)" stroke="rgb(247,132,25)"
        points="312.8422589171678,144.79725790023804 282.22492764890194,144.9987177848816 282.9735015630722,91.59704399108887"></polygon>
    <polygon fill="rgb(119,57,0)" stroke="rgb(119,57,0)"
        points="414.5641632974148,16.32296884059906 430.5058255791664,55.04874396324158 375.05816182494164,65.19387650489807"></polygon>
    <polygon fill="rgb(205,98,0)" stroke="rgb(205,98,0)"
        points="247.42622025310993,232.61344456672668 220.14225989580154,189.8421323299408 249.41029451787472,188.97520595788956"></polygon>
    <polygon fill="rgb(228,116,36)" stroke="rgb(228,116,36)"
        points="228.5262602865696,144.46606913208961 249.3548542559147,166.32664265483618 249.41029451787472,188.97520595788956"></polygon>
    <polygon fill="rgb(247,132,25)" stroke="rgb(247,132,25)"
        points="228.5262602865696,144.46606913208961 249.41029451787472,188.97520595788956 220.14225989580154,189.8421323299408"></polygon>
    <polygon fill="rgb(205,98,0)" stroke="rgb(205,98,0)"
        points="249.3548542559147,166.32664265483618 228.5262602865696,144.46606913208961 282.22492764890194,144.9987177848816"></polygon>
    <polygon fill="rgb(205,98,0)" stroke="rgb(205,98,0)"
        points="355.22235065698624,234.1078706383705 346.48721793293953,189.32981142401695 380.46152648329735,190.46450889110565"></polygon>
    <polygon fill="rgb(192,172,157)" stroke="rgb(192,172,157)"
        points="256.17280791699886,239.8612539768219 247.42622025310993,232.61344456672668 269.40306443721056,238.78289926052094"></polygon>
    <polygon fill="rgb(214,194,178)" stroke="rgb(214,194,178)"
        points="267.2273463755846,227.0351237654686 269.40306443721056,238.78289926052094 247.42622025310993,232.61344456672668"></polygon>
    <polygon fill="rgb(214,194,178)" stroke="rgb(214,194,178)"
        points="247.42622025310993,232.61344456672668 269.726465202868,203.78263932466507 267.2273463755846,227.0351237654686"></polygon>
    <polygon fill="rgb(228,119,25)" stroke="rgb(228,119,25)"
        points="269.726465202868,203.78263932466507 247.42622025310993,232.61344456672668 249.41029451787472,188.97520595788956"></polygon>
    <polygon fill="rgb(205,98,0)" stroke="rgb(205,98,0)"
        points="282.22492764890194,144.9987177848816 269.0021415427327,156.93381332606077 249.3548542559147,166.32664265483618"></polygon>
    <polygon fill="rgb(205,98,0)" stroke="rgb(205,98,0)"
        points="312.8422589171678,144.79725790023804 371.92856155335903,143.49263280630112 347.6234070658684,166.16516373306513"></polygon>
    <polygon fill="rgb(36,51,67)" stroke="rgb(36,51,67)"
        points="276.2355220466852,173.60282297432423 249.3548542559147,166.32664265483618 269.0021415427327,156.93381332606077"></polygon>
    <polygon fill="rgb(247,132,25)" stroke="rgb(247,132,25)"
        points="249.41029451787472,188.97520595788956 249.3548542559147,166.32664265483618 276.2355220466852,173.60282297432423"></polygon>
    <polygon fill="rgb(228,116,36)" stroke="rgb(228,116,36)"
        points="371.92856155335903,143.49263280630112 346.48721793293953,189.32981142401695 347.6234070658684,166.16516373306513"></polygon>
    <polygon fill="rgb(247,132,25)" stroke="rgb(247,132,25)"
        points="380.46152648329735,190.46450889110565 346.48721793293953,189.32981142401695 371.92856155335903,143.49263280630112"></polygon>
    <polygon fill="rgb(192,172,157)" stroke="rgb(192,172,157)"
        points="312.46940039657056,239.43872690200806 355.22235065698624,234.1078706383705 341.5207558423281,241.1864799261093"></polygon>
    <polygon fill="rgb(205,98,0)" stroke="rgb(205,98,0)"
        points="269.0021415427327,156.93381332606077 282.22492764890194,144.9987177848816 276.2355220466852,173.60282297432423"></polygon>
    <polygon fill="rgb(214,194,178)" stroke="rgb(214,194,178)"
        points="310.69922849163413,227.57854372262955 355.22235065698624,234.1078706383705 312.46940039657056,239.43872690200806"></polygon>
    <polygon fill="rgb(214,194,178)" stroke="rgb(214,194,178)"
        points="355.22235065698624,234.1078706383705 310.69922849163413,227.57854372262955 307.61371225467883,204.0509448647499"></polygon>
    <polygon fill="rgb(228,119,25)" stroke="rgb(228,119,25)"
        points="307.61371225467883,204.0509448647499 346.48721793293953,189.32981142401695 355.22235065698624,234.1078706383705"></polygon>
    <polygon fill="rgb(205,98,0)" stroke="rgb(205,98,0)"
        points="347.6234070658684,166.16516373306513 326.8692084476352,156.7126401886344 312.8422589171678,144.79725790023804"></polygon>
    <polygon fill="rgb(228,116,36)" stroke="rgb(228,116,36)"
        points="276.2355220466852,173.60282297432423 282.22492764890194,144.9987177848816 281.9156991690397,161.86265831813216"></polygon>
    <polygon fill="rgb(247,132,25)" stroke="rgb(247,132,25)"
        points="281.9156991690397,161.86265831813216 282.22492764890194,144.9987177848816 312.8422589171678,144.79725790023804"></polygon>
    <polygon fill="rgb(36,51,67)" stroke="rgb(36,51,67)"
        points="317.49307256937027,173.60520914196968 326.8692084476352,156.7126401886344 347.6234070658684,166.16516373306513"></polygon>
    <polygon fill="rgb(205,98,0)" stroke="rgb(205,98,0)"
        points="326.8692084476352,156.7126401886344 317.49307256937027,173.60520914196968 312.8422589171678,144.79725790023804"></polygon>
    <polygon fill="rgb(247,132,25)" stroke="rgb(247,132,25)"
        points="346.48721793293953,189.32981142401695 317.49307256937027,173.60520914196968 347.6234070658684,166.16516373306513"></polygon>
    <polygon fill="rgb(247,132,25)" stroke="rgb(247,132,25)"
        points="312.8422589171678,144.79725790023804 310.06153738871217,161.78759939596057 281.9156991690397,161.86265831813216"></polygon>
    <polygon fill="rgb(225,119,25)" stroke="rgb(225,119,25)"
        points="317.49307256937027,173.60520914196968 310.06153738871217,161.78759939596057 312.8422589171678,144.79725790023804"></polygon>
    <polygon fill="rgb(192,172,157)" stroke="rgb(192,172,157)"
        points="269.40306443721056,238.78289926052094 270.8141355291009,248.39796590805054 256.17280791699886,239.8612539768219"></polygon>
    <polygon fill="rgb(192,172,157)" stroke="rgb(192,172,157)"
        points="341.5207558423281,241.1864799261093 310.1082514934242,249.0840709209442 312.46940039657056,239.43872690200806"></polygon>
    <polygon fill="rgb(247,132,25)" stroke="rgb(247,132,25)"
        points="269.726465202868,203.78263932466507 249.41029451787472,188.97520595788956 276.2355220466852,173.60282297432423"></polygon>
    <polygon fill="rgb(228,116,36)" stroke="rgb(228,116,36)"
        points="281.9156991690397,161.86265831813216 274.5843226611614,200.39444136619568 276.2355220466852,173.60282297432423"></polygon>
    <polygon fill="rgb(247,132,25)" stroke="rgb(247,132,25)"
        points="276.2355220466852,173.60282297432423 274.5843226611614,200.39444136619568 269.726465202868,203.78263932466507"></polygon>
    <polygon fill="rgb(247,132,25)" stroke="rgb(247,132,25)"
        points="317.49307256937027,173.60520914196968 346.48721793293953,189.32981142401695 307.61371225467883,204.0509448647499"></polygon>
    <polygon fill="rgb(228,116,36)" stroke="rgb(228,116,36)"
        points="310.06153738871217,161.78759939596057 317.49307256937027,173.60520914196968 302.6943773459643,200.57114255428314"></polygon>
    <polygon fill="rgb(247,132,25)" stroke="rgb(247,132,25)"
        points="307.61371225467883,204.0509448647499 302.6943773459643,200.57114255428314 317.49307256937027,173.60520914196968"></polygon>
    <polygon fill="rgb(247,132,25)" stroke="rgb(247,132,25)"
        points="281.9156991690397,161.86265831813216 310.06153738871217,161.78759939596057 302.6943773459643,200.57114255428314"></polygon>
    <polygon fill="rgb(247,132,25)" stroke="rgb(247,132,25)"
        points="302.6943773459643,200.57114255428314 274.5843226611614,200.39444136619568 281.9156991690397,161.86265831813216"></polygon>
    <polygon fill="rgb(192,172,157)" stroke="rgb(192,172,157)"
        points="310.69922849163413,227.57854372262955 312.46940039657056,239.43872690200806 310.1082514934242,249.0840709209442"></polygon>
    <polygon fill="rgb(192,172,157)" stroke="rgb(192,172,157)"
        points="267.2273463755846,227.0351237654686 268.8021787330508,223.76894408464432 270.8141355291009,248.39796590805054"></polygon>
    <polygon fill="rgb(192,172,157)" stroke="rgb(192,172,157)"
        points="270.8141355291009,248.39796590805054 268.8021787330508,223.76894408464432 307.2144401857513,224.2197378873825"></polygon>
    <polygon fill="rgb(192,172,157)" stroke="rgb(192,172,157)"
        points="307.2144401857513,224.2197378873825 310.1082514934242,249.0840709209442 270.8141355291009,248.39796590805054"></polygon>
    <polygon fill="rgb(192,172,157)" stroke="rgb(192,172,157)"
        points="310.1082514934242,249.0840709209442 307.2144401857513,224.2197378873825 310.69922849163413,227.57854372262955"></polygon>
    <polygon fill="rgb(0,0,0)" stroke="rgb(0,0,0)"
        points="268.8021787330508,223.76894408464432 267.2273463755846,227.0351237654686 269.726465202868,203.78263932466507"></polygon>
    <polygon fill="rgb(0,0,0)" stroke="rgb(0,0,0)"
        points="269.726465202868,203.78263932466507 274.5843226611614,200.39444136619568 272.4389071241021,203.20870184898376"></polygon>
    <polygon fill="rgb(0,0,0)" stroke="rgb(0,0,0)"
        points="272.4389071241021,203.20870184898376 269.3281109780073,206.73272889852524 269.726465202868,203.78263932466507"></polygon>
    <polygon fill="rgb(0,0,0)" stroke="rgb(0,0,0)"
        points="272.4389071241021,203.20870184898376 274.5843226611614,200.39444136619568 302.6943773459643,200.57114255428314"></polygon>
    <polygon fill="rgb(0,0,0)" stroke="rgb(0,0,0)"
        points="307.61371225467883,204.0509448647499 310.69922849163413,227.57854372262955 307.2144401857513,224.2197378873825"></polygon>
    <polygon fill="rgb(0,0,0)" stroke="rgb(0,0,0)"
        points="302.6943773459643,200.57114255428314 301.0646634064615,203.40747302770615 272.4389071241021,203.20870184898376"></polygon>
    <polygon fill="rgb(0,0,0)" stroke="rgb(0,0,0)"
        points="301.0646634064615,203.40747302770615 302.6943773459643,200.57114255428314 307.61371225467883,204.0509448647499"></polygon>
    <polygon fill="rgb(0,0,0)" stroke="rgb(0,0,0)"
        points="307.2144401857513,224.2197378873825 304.20630560349673,207.00369489192963 307.61371225467883,204.0509448647499"></polygon>
    <polygon fill="rgb(0,0,0)" stroke="rgb(0,0,0)"
        points="307.61371225467883,204.0509448647499 304.20630560349673,207.00369489192963 301.0646634064615,203.40747302770615"></polygon>
    <polygon fill="rgb(0,0,0)" stroke="rgb(0,0,0)"
        points="307.2144401857513,224.2197378873825 268.8021787330508,223.76894408464432 269.3281109780073,206.73272889852524"></polygon>
    <polygon fill="rgb(0,0,0)" stroke="rgb(0,0,0)"
        points="269.3281109780073,206.73272889852524 304.20630560349673,207.00369489192963 307.2144401857513,224.2197378873825"></polygon>
    <polygon fill="rgb(0,0,0)" stroke="rgb(0,0,0)"
        points="269.3281109780073,206.73272889852524 272.4389071241021,203.20870184898376 301.0646634064615,203.40747302770615"></polygon>
    <polygon fill="rgb(0,0,0)" stroke="rgb(0,0,0)"
        points="301.0646634064615,203.40747302770615 304.20630560349673,207.00369489192963 269.3281109780073,206.73272889852524"></polygon>
</svg>